<svg xmlns="http://www.w3.org/2000/svg" xmlns:xlink="http://www.w3.org/1999/xlink" width="103" height="103" viewBox="0 0 103 103">
  <defs>
    <clipPath id="clip-tn-blackdots">
      <rect width="103" height="103"/>
    </clipPath>
  </defs>
  <g id="tn-blackdots" clip-path="url(#clip-tn-blackdots)">
    <rect width="103" height="103" fill="#fff"/>
    <circle id="Ellipse_390" data-name="Ellipse 390" cx="8" cy="8" r="8" transform="translate(1 2)" fill="#3c3b3b"/>
    <circle id="Ellipse_395" data-name="Ellipse 395" cx="8" cy="8" r="8" transform="translate(0 44)" fill="#3c3b3b"/>
    <circle id="Ellipse_398" data-name="Ellipse 398" cx="8" cy="8" r="8" transform="translate(0 86)" fill="#3c3b3b"/>
    <circle id="Ellipse_391" data-name="Ellipse 391" cx="8" cy="8" r="8" transform="translate(44 2)" fill="#3c3b3b"/>
    <circle id="Ellipse_394" data-name="Ellipse 394" cx="8" cy="8" r="8" transform="translate(43 44)" fill="#3c3b3b"/>
    <circle id="Ellipse_397" data-name="Ellipse 397" cx="8" cy="8" r="8" transform="translate(43 86)" fill="#3c3b3b"/>
    <circle id="Ellipse_392" data-name="Ellipse 392" cx="8" cy="8" r="8" transform="translate(85 2)" fill="#3c3b3b"/>
    <circle id="Ellipse_393" data-name="Ellipse 393" cx="8" cy="8" r="8" transform="translate(84 44)" fill="#3c3b3b"/>
    <circle id="Ellipse_396" data-name="Ellipse 396" cx="8" cy="8" r="8" transform="translate(84 86)" fill="#3c3b3b"/>
    <circle id="Ellipse_399" data-name="Ellipse 399" cx="4.5" cy="4.5" r="4.5" transform="translate(23 24)" fill="#3c3b3b"/>
    <circle id="Ellipse_402" data-name="Ellipse 402" cx="4.5" cy="4.5" r="4.5" transform="translate(23 66)" fill="#3c3b3b"/>
    <circle id="Ellipse_400" data-name="Ellipse 400" cx="4.5" cy="4.5" r="4.5" transform="translate(65 24)" fill="#3c3b3b"/>
    <circle id="Ellipse_401" data-name="Ellipse 401" cx="4.5" cy="4.5" r="4.5" transform="translate(65 66)" fill="#3c3b3b"/>
  </g>
</svg>
