<svg xmlns="http://www.w3.org/2000/svg" xmlns:xlink="http://www.w3.org/1999/xlink" width="103" height="103" viewBox="0 0 103 103">
  <defs>
    <clipPath id="clip-tn-dots">
      <rect width="103" height="103"/>
    </clipPath>
  </defs>
  <g id="tn-dots" clip-path="url(#clip-tn-dots)">
    <rect width="103" height="103" fill="#fff"/>
    <g id="Ellipse_372" data-name="Ellipse 372" fill="none" stroke="#3c3b3b" stroke-width="2">
      <circle cx="17.5" cy="17.5" r="17.5" stroke="none"/>
      <circle cx="17.5" cy="17.5" r="16.5" fill="none"/>
    </g>
    <g id="Ellipse_377" data-name="Ellipse 377" transform="translate(0 34)" fill="none" stroke="#3c3b3b" stroke-width="2">
      <circle cx="17.5" cy="17.5" r="17.5" stroke="none"/>
      <circle cx="17.5" cy="17.5" r="16.5" fill="none"/>
    </g>
    <g id="Ellipse_380" data-name="Ellipse 380" transform="translate(0 68)" fill="none" stroke="#3c3b3b" stroke-width="2">
      <circle cx="17.5" cy="17.5" r="17.5" stroke="none"/>
      <circle cx="17.5" cy="17.5" r="16.5" fill="none"/>
    </g>
    <g id="Ellipse_373" data-name="Ellipse 373" transform="translate(34)" fill="none" stroke="#3c3b3b" stroke-width="2">
      <circle cx="17.5" cy="17.5" r="17.5" stroke="none"/>
      <circle cx="17.5" cy="17.5" r="16.5" fill="none"/>
    </g>
    <g id="Ellipse_376" data-name="Ellipse 376" transform="translate(34 34)" fill="none" stroke="#3c3b3b" stroke-width="2">
      <circle cx="17.5" cy="17.5" r="17.5" stroke="none"/>
      <circle cx="17.5" cy="17.5" r="16.5" fill="none"/>
    </g>
    <g id="Ellipse_379" data-name="Ellipse 379" transform="translate(34 68)" fill="none" stroke="#3c3b3b" stroke-width="2">
      <circle cx="17.5" cy="17.5" r="17.5" stroke="none"/>
      <circle cx="17.5" cy="17.5" r="16.5" fill="none"/>
    </g>
    <g id="Ellipse_374" data-name="Ellipse 374" transform="translate(68)" fill="none" stroke="#3c3b3b" stroke-width="2">
      <circle cx="17.5" cy="17.5" r="17.5" stroke="none"/>
      <circle cx="17.5" cy="17.5" r="16.5" fill="none"/>
    </g>
    <g id="Ellipse_375" data-name="Ellipse 375" transform="translate(68 34)" fill="none" stroke="#3c3b3b" stroke-width="2">
      <circle cx="17.5" cy="17.5" r="17.5" stroke="none"/>
      <circle cx="17.5" cy="17.5" r="16.5" fill="none"/>
    </g>
    <g id="Ellipse_378" data-name="Ellipse 378" transform="translate(68 68)" fill="none" stroke="#3c3b3b" stroke-width="2">
      <circle cx="17.5" cy="17.5" r="17.5" stroke="none"/>
      <circle cx="17.5" cy="17.5" r="16.5" fill="none"/>
    </g>
    <g id="Ellipse_381" data-name="Ellipse 381" transform="translate(17 17)" fill="none" stroke="#3c3b3b" stroke-width="1">
      <circle cx="6" cy="6" r="6" stroke="none"/>
      <circle cx="6" cy="6" r="5.5" fill="none"/>
    </g>
    <g id="Ellipse_386" data-name="Ellipse 386" transform="translate(17 51)" fill="none" stroke="#3c3b3b" stroke-width="1">
      <circle cx="6" cy="6" r="6" stroke="none"/>
      <circle cx="6" cy="6" r="5.5" fill="none"/>
    </g>
    <g id="Ellipse_389" data-name="Ellipse 389" transform="translate(17 85)" fill="none" stroke="#3c3b3b" stroke-width="1">
      <circle cx="6" cy="6" r="6" stroke="none"/>
      <circle cx="6" cy="6" r="5.5" fill="none"/>
    </g>
    <g id="Ellipse_382" data-name="Ellipse 382" transform="translate(51 17)" fill="none" stroke="#3c3b3b" stroke-width="1">
      <circle cx="6" cy="6" r="6" stroke="none"/>
      <circle cx="6" cy="6" r="5.5" fill="none"/>
    </g>
    <g id="Ellipse_385" data-name="Ellipse 385" transform="translate(51 51)" fill="none" stroke="#3c3b3b" stroke-width="1">
      <circle cx="6" cy="6" r="6" stroke="none"/>
      <circle cx="6" cy="6" r="5.5" fill="none"/>
    </g>
    <g id="Ellipse_388" data-name="Ellipse 388" transform="translate(51 85)" fill="none" stroke="#3c3b3b" stroke-width="1">
      <circle cx="6" cy="6" r="6" stroke="none"/>
      <circle cx="6" cy="6" r="5.5" fill="none"/>
    </g>
    <g id="Ellipse_383" data-name="Ellipse 383" transform="translate(85 17)" fill="none" stroke="#3c3b3b" stroke-width="1">
      <circle cx="6" cy="6" r="6" stroke="none"/>
      <circle cx="6" cy="6" r="5.5" fill="none"/>
    </g>
    <g id="Ellipse_384" data-name="Ellipse 384" transform="translate(85 51)" fill="none" stroke="#3c3b3b" stroke-width="1">
      <circle cx="6" cy="6" r="6" stroke="none"/>
      <circle cx="6" cy="6" r="5.5" fill="none"/>
    </g>
    <g id="Ellipse_387" data-name="Ellipse 387" transform="translate(85 85)" fill="none" stroke="#3c3b3b" stroke-width="1">
      <circle cx="6" cy="6" r="6" stroke="none"/>
      <circle cx="6" cy="6" r="5.5" fill="none"/>
    </g>
  </g>
</svg>
