<svg xmlns="http://www.w3.org/2000/svg" xmlns:xlink="http://www.w3.org/1999/xlink" width="103" height="103" viewBox="0 0 103 103">
  <defs>
    <clipPath id="clip-tn-full">
      <rect width="103" height="103"/>
    </clipPath>
  </defs>
  <g id="tn-full" clip-path="url(#clip-tn-full)">
    <rect width="103" height="103" fill="#fff"/>
    <g id="Group_481" data-name="Group 481" transform="translate(-2867 -1073)">
      <path id="Path_24772-27" data-name="Path 24772-27" d="M35.871,0c.947.241,1.9.459,2.84.724a16.985,16.985,0,0,1-2.665,33.2c-.623.071-1.229.147-1.914.228-.149,1.1-.237,2.2-.455,3.28a17.01,17.01,0,0,1-33.4-.394A8.285,8.285,0,0,0,0,36.122V31.887a2.377,2.377,0,0,0,.232-.531,16.9,16.9,0,0,1,13.526-14c1.038-.208,2.1-.289,3.147-.428.081-.673.15-1.246.218-1.818A16.929,16.929,0,0,1,29.654.61C30.484.388,31.314.2,32.145,0Zm11.7,17A13.564,13.564,0,1,0,34.04,30.6l.143,0A13.677,13.677,0,0,0,47.576,17Z" transform="translate(2955.775 1119.041) rotate(90)" fill="none" stroke="#3c3b3b" stroke-miterlimit="10" stroke-width="2"/>
      <path id="Path_24774-27" data-name="Path 24774-27" d="M27.127,13.512A13.564,13.564,0,1,1,13.5,0,13.563,13.563,0,0,1,27.127,13.512Z" transform="translate(2952.284 1139.482) rotate(90)" fill="none" stroke="#3c3b3b" stroke-miterlimit="10" stroke-width="2"/>
    </g>
    <g id="Group_482" data-name="Group 482" transform="translate(-2880 -1060)">
      <path id="Path_24772-27-2" data-name="Path 24772-27" d="M35.871,0c.947.241,1.9.459,2.84.724a16.985,16.985,0,0,1-2.665,33.2c-.623.071-1.229.147-1.914.228-.149,1.1-.237,2.2-.455,3.28a17.01,17.01,0,0,1-33.4-.394A8.285,8.285,0,0,0,0,36.122V31.887a2.377,2.377,0,0,0,.232-.531,16.9,16.9,0,0,1,13.526-14c1.038-.208,2.1-.289,3.147-.428.081-.673.15-1.246.218-1.818A16.929,16.929,0,0,1,29.654.61C30.484.388,31.314.2,32.145,0Zm11.7,17A13.564,13.564,0,1,0,34.04,30.6l.143,0A13.677,13.677,0,0,0,47.576,17Z" transform="translate(2955.775 1119.041) rotate(90)" fill="none" stroke="#3c3b3b" stroke-miterlimit="10" stroke-width="2"/>
      <path id="Path_24774-27-2" data-name="Path 24774-27" d="M27.127,13.512A13.564,13.564,0,1,1,13.5,0,13.563,13.563,0,0,1,27.127,13.512Z" transform="translate(2952.284 1139.482) rotate(90)" fill="none" stroke="#3c3b3b" stroke-miterlimit="10" stroke-width="2"/>
    </g>
    <g id="Group_483" data-name="Group 483" transform="translate(-2868 -1128)">
      <path id="Path_24772-27-3" data-name="Path 24772-27" d="M35.871,0c.947.241,1.9.459,2.84.724a16.985,16.985,0,0,1-2.665,33.2c-.623.071-1.229.147-1.914.228-.149,1.1-.237,2.2-.455,3.28a17.01,17.01,0,0,1-33.4-.394A8.285,8.285,0,0,0,0,36.122V31.887a2.377,2.377,0,0,0,.232-.531,16.9,16.9,0,0,1,13.526-14c1.038-.208,2.1-.289,3.147-.428.081-.673.15-1.246.218-1.818A16.929,16.929,0,0,1,29.654.61C30.484.388,31.314.2,32.145,0Zm11.7,17A13.564,13.564,0,1,0,34.04,30.6l.143,0A13.677,13.677,0,0,0,47.576,17Z" transform="translate(2955.775 1119.041) rotate(90)" fill="none" stroke="#3c3b3b" stroke-miterlimit="10" stroke-width="2"/>
      <path id="Path_24774-27-3" data-name="Path 24774-27" d="M27.127,13.512A13.564,13.564,0,1,1,13.5,0,13.563,13.563,0,0,1,27.127,13.512Z" transform="translate(2952.284 1139.482) rotate(90)" fill="none" stroke="#3c3b3b" stroke-miterlimit="10" stroke-width="2"/>
    </g>
    <g id="Group_484" data-name="Group 484" transform="translate(-2881 -1115)">
      <path id="Path_24772-27-4" data-name="Path 24772-27" d="M35.871,0c.947.241,1.9.459,2.84.724a16.985,16.985,0,0,1-2.665,33.2c-.623.071-1.229.147-1.914.228-.149,1.1-.237,2.2-.455,3.28a17.01,17.01,0,0,1-33.4-.394A8.285,8.285,0,0,0,0,36.122V31.887a2.377,2.377,0,0,0,.232-.531,16.9,16.9,0,0,1,13.526-14c1.038-.208,2.1-.289,3.147-.428.081-.673.15-1.246.218-1.818A16.929,16.929,0,0,1,29.654.61C30.484.388,31.314.2,32.145,0Zm11.7,17A13.564,13.564,0,1,0,34.04,30.6l.143,0A13.677,13.677,0,0,0,47.576,17Z" transform="translate(2955.775 1119.041) rotate(90)" fill="none" stroke="#3c3b3b" stroke-miterlimit="10" stroke-width="2"/>
      <path id="Path_24774-27-4" data-name="Path 24774-27" d="M27.127,13.512A13.564,13.564,0,1,1,13.5,0,13.563,13.563,0,0,1,27.127,13.512Z" transform="translate(2952.284 1139.482) rotate(90)" fill="none" stroke="#3c3b3b" stroke-miterlimit="10" stroke-width="2"/>
    </g>
    <g id="Group_485" data-name="Group 485" transform="translate(-2922 -1128)">
      <path id="Path_24772-27-5" data-name="Path 24772-27" d="M35.871,0c.947.241,1.9.459,2.84.724a16.985,16.985,0,0,1-2.665,33.2c-.623.071-1.229.147-1.914.228-.149,1.1-.237,2.2-.455,3.28a17.01,17.01,0,0,1-33.4-.394A8.285,8.285,0,0,0,0,36.122V31.887a2.377,2.377,0,0,0,.232-.531,16.9,16.9,0,0,1,13.526-14c1.038-.208,2.1-.289,3.147-.428.081-.673.15-1.246.218-1.818A16.929,16.929,0,0,1,29.654.61C30.484.388,31.314.2,32.145,0Zm11.7,17A13.564,13.564,0,1,0,34.04,30.6l.143,0A13.677,13.677,0,0,0,47.576,17Z" transform="translate(2955.775 1119.041) rotate(90)" fill="none" stroke="#3c3b3b" stroke-miterlimit="10" stroke-width="2"/>
      <path id="Path_24774-27-5" data-name="Path 24774-27" d="M27.127,13.512A13.564,13.564,0,1,1,13.5,0,13.563,13.563,0,0,1,27.127,13.512Z" transform="translate(2952.284 1139.482) rotate(90)" fill="none" stroke="#3c3b3b" stroke-miterlimit="10" stroke-width="2"/>
    </g>
    <g id="Group_486" data-name="Group 486" transform="translate(-2935 -1115)">
      <path id="Path_24772-27-6" data-name="Path 24772-27" d="M35.871,0c.947.241,1.9.459,2.84.724a16.985,16.985,0,0,1-2.665,33.2c-.623.071-1.229.147-1.914.228-.149,1.1-.237,2.2-.455,3.28a17.01,17.01,0,0,1-33.4-.394A8.285,8.285,0,0,0,0,36.122V31.887a2.377,2.377,0,0,0,.232-.531,16.9,16.9,0,0,1,13.526-14c1.038-.208,2.1-.289,3.147-.428.081-.673.15-1.246.218-1.818A16.929,16.929,0,0,1,29.654.61C30.484.388,31.314.2,32.145,0Zm11.7,17A13.564,13.564,0,1,0,34.04,30.6l.143,0A13.677,13.677,0,0,0,47.576,17Z" transform="translate(2955.775 1119.041) rotate(90)" fill="none" stroke="#3c3b3b" stroke-miterlimit="10" stroke-width="2"/>
      <path id="Path_24774-27-6" data-name="Path 24774-27" d="M27.127,13.512A13.564,13.564,0,1,1,13.5,0,13.563,13.563,0,0,1,27.127,13.512Z" transform="translate(2952.284 1139.482) rotate(90)" fill="none" stroke="#3c3b3b" stroke-miterlimit="10" stroke-width="2"/>
    </g>
    <g id="Group_488" data-name="Group 488" transform="translate(-2813 -1128)">
      <path id="Path_24772-27-7" data-name="Path 24772-27" d="M35.871,0c.947.241,1.9.459,2.84.724a16.985,16.985,0,0,1-2.665,33.2c-.623.071-1.229.147-1.914.228-.149,1.1-.237,2.2-.455,3.28a17.01,17.01,0,0,1-33.4-.394A8.285,8.285,0,0,0,0,36.122V31.887a2.377,2.377,0,0,0,.232-.531,16.9,16.9,0,0,1,13.526-14c1.038-.208,2.1-.289,3.147-.428.081-.673.15-1.246.218-1.818A16.929,16.929,0,0,1,29.654.61C30.484.388,31.314.2,32.145,0Zm11.7,17A13.564,13.564,0,1,0,34.04,30.6l.143,0A13.677,13.677,0,0,0,47.576,17Z" transform="translate(2955.775 1119.041) rotate(90)" fill="none" stroke="#3c3b3b" stroke-miterlimit="10" stroke-width="2"/>
      <path id="Path_24774-27-7" data-name="Path 24774-27" d="M27.127,13.512A13.564,13.564,0,1,1,13.5,0,13.563,13.563,0,0,1,27.127,13.512Z" transform="translate(2952.284 1139.482) rotate(90)" fill="none" stroke="#3c3b3b" stroke-miterlimit="10" stroke-width="2"/>
    </g>
    <g id="Group_487" data-name="Group 487" transform="translate(-2826 -1115)">
      <path id="Path_24772-27-8" data-name="Path 24772-27" d="M35.871,0c.947.241,1.9.459,2.84.724a16.985,16.985,0,0,1-2.665,33.2c-.623.071-1.229.147-1.914.228-.149,1.1-.237,2.2-.455,3.28a17.01,17.01,0,0,1-33.4-.394A8.285,8.285,0,0,0,0,36.122V31.887a2.377,2.377,0,0,0,.232-.531,16.9,16.9,0,0,1,13.526-14c1.038-.208,2.1-.289,3.147-.428.081-.673.15-1.246.218-1.818A16.929,16.929,0,0,1,29.654.61C30.484.388,31.314.2,32.145,0Zm11.7,17A13.564,13.564,0,1,0,34.04,30.6l.143,0A13.677,13.677,0,0,0,47.576,17Z" transform="translate(2955.775 1119.041) rotate(90)" fill="none" stroke="#3c3b3b" stroke-miterlimit="10" stroke-width="2"/>
      <path id="Path_24774-27-8" data-name="Path 24774-27" d="M27.127,13.512A13.564,13.564,0,1,1,13.5,0,13.563,13.563,0,0,1,27.127,13.512Z" transform="translate(2952.284 1139.482) rotate(90)" fill="none" stroke="#3c3b3b" stroke-miterlimit="10" stroke-width="2"/>
    </g>
    <g id="Group_489" data-name="Group 489" transform="translate(-2922 -1073)">
      <path id="Path_24772-27-9" data-name="Path 24772-27" d="M35.871,0c.947.241,1.9.459,2.84.724a16.985,16.985,0,0,1-2.665,33.2c-.623.071-1.229.147-1.914.228-.149,1.1-.237,2.2-.455,3.28a17.01,17.01,0,0,1-33.4-.394A8.285,8.285,0,0,0,0,36.122V31.887a2.377,2.377,0,0,0,.232-.531,16.9,16.9,0,0,1,13.526-14c1.038-.208,2.1-.289,3.147-.428.081-.673.15-1.246.218-1.818A16.929,16.929,0,0,1,29.654.61C30.484.388,31.314.2,32.145,0Zm11.7,17A13.564,13.564,0,1,0,34.04,30.6l.143,0A13.677,13.677,0,0,0,47.576,17Z" transform="translate(2955.775 1119.041) rotate(90)" fill="none" stroke="#3c3b3b" stroke-miterlimit="10" stroke-width="2"/>
      <path id="Path_24774-27-9" data-name="Path 24774-27" d="M27.127,13.512A13.564,13.564,0,1,1,13.5,0,13.563,13.563,0,0,1,27.127,13.512Z" transform="translate(2952.284 1139.482) rotate(90)" fill="none" stroke="#3c3b3b" stroke-miterlimit="10" stroke-width="2"/>
    </g>
    <g id="Group_490" data-name="Group 490" transform="translate(-2935 -1060)">
      <path id="Path_24772-27-10" data-name="Path 24772-27" d="M35.871,0c.947.241,1.9.459,2.84.724a16.985,16.985,0,0,1-2.665,33.2c-.623.071-1.229.147-1.914.228-.149,1.1-.237,2.2-.455,3.28a17.01,17.01,0,0,1-33.4-.394A8.285,8.285,0,0,0,0,36.122V31.887a2.377,2.377,0,0,0,.232-.531,16.9,16.9,0,0,1,13.526-14c1.038-.208,2.1-.289,3.147-.428.081-.673.15-1.246.218-1.818A16.929,16.929,0,0,1,29.654.61C30.484.388,31.314.2,32.145,0Zm11.7,17A13.564,13.564,0,1,0,34.04,30.6l.143,0A13.677,13.677,0,0,0,47.576,17Z" transform="translate(2955.775 1119.041) rotate(90)" fill="none" stroke="#3c3b3b" stroke-miterlimit="10" stroke-width="2"/>
      <path id="Path_24774-27-10" data-name="Path 24774-27" d="M27.127,13.512A13.564,13.564,0,1,1,13.5,0,13.563,13.563,0,0,1,27.127,13.512Z" transform="translate(2952.284 1139.482) rotate(90)" fill="none" stroke="#3c3b3b" stroke-miterlimit="10" stroke-width="2"/>
    </g>
    <g id="Group_491" data-name="Group 491" transform="translate(-2813 -1073)">
      <path id="Path_24772-27-11" data-name="Path 24772-27" d="M35.871,0c.947.241,1.9.459,2.84.724a16.985,16.985,0,0,1-2.665,33.2c-.623.071-1.229.147-1.914.228-.149,1.1-.237,2.2-.455,3.28a17.01,17.01,0,0,1-33.4-.394A8.285,8.285,0,0,0,0,36.122V31.887a2.377,2.377,0,0,0,.232-.531,16.9,16.9,0,0,1,13.526-14c1.038-.208,2.1-.289,3.147-.428.081-.673.15-1.246.218-1.818A16.929,16.929,0,0,1,29.654.61C30.484.388,31.314.2,32.145,0Zm11.7,17A13.564,13.564,0,1,0,34.04,30.6l.143,0A13.677,13.677,0,0,0,47.576,17Z" transform="translate(2955.775 1119.041) rotate(90)" fill="none" stroke="#3c3b3b" stroke-miterlimit="10" stroke-width="2"/>
      <path id="Path_24774-27-11" data-name="Path 24774-27" d="M27.127,13.512A13.564,13.564,0,1,1,13.5,0,13.563,13.563,0,0,1,27.127,13.512Z" transform="translate(2952.284 1139.482) rotate(90)" fill="none" stroke="#3c3b3b" stroke-miterlimit="10" stroke-width="2"/>
    </g>
    <g id="Group_492" data-name="Group 492" transform="translate(-2826 -1060)">
      <path id="Path_24772-27-12" data-name="Path 24772-27" d="M35.871,0c.947.241,1.9.459,2.84.724a16.985,16.985,0,0,1-2.665,33.2c-.623.071-1.229.147-1.914.228-.149,1.1-.237,2.2-.455,3.28a17.01,17.01,0,0,1-33.4-.394A8.285,8.285,0,0,0,0,36.122V31.887a2.377,2.377,0,0,0,.232-.531,16.9,16.9,0,0,1,13.526-14c1.038-.208,2.1-.289,3.147-.428.081-.673.15-1.246.218-1.818A16.929,16.929,0,0,1,29.654.61C30.484.388,31.314.2,32.145,0Zm11.7,17A13.564,13.564,0,1,0,34.04,30.6l.143,0A13.677,13.677,0,0,0,47.576,17Z" transform="translate(2955.775 1119.041) rotate(90)" fill="none" stroke="#3c3b3b" stroke-miterlimit="10" stroke-width="2"/>
      <path id="Path_24774-27-12" data-name="Path 24774-27" d="M27.127,13.512A13.564,13.564,0,1,1,13.5,0,13.563,13.563,0,0,1,27.127,13.512Z" transform="translate(2952.284 1139.482) rotate(90)" fill="none" stroke="#3c3b3b" stroke-miterlimit="10" stroke-width="2"/>
    </g>
    <g id="Group_493" data-name="Group 493" transform="translate(-2922 -1073)">
      <path id="Path_24772-27-13" data-name="Path 24772-27" d="M35.871,0c.947.241,1.9.459,2.84.724a16.985,16.985,0,0,1-2.665,33.2c-.623.071-1.229.147-1.914.228-.149,1.1-.237,2.2-.455,3.28a17.01,17.01,0,0,1-33.4-.394A8.285,8.285,0,0,0,0,36.122V31.887a2.377,2.377,0,0,0,.232-.531,16.9,16.9,0,0,1,13.526-14c1.038-.208,2.1-.289,3.147-.428.081-.673.15-1.246.218-1.818A16.929,16.929,0,0,1,29.654.61C30.484.388,31.314.2,32.145,0Zm11.7,17A13.564,13.564,0,1,0,34.04,30.6l.143,0A13.677,13.677,0,0,0,47.576,17Z" transform="translate(2955.775 1119.041) rotate(90)" fill="none" stroke="#3c3b3b" stroke-miterlimit="10" stroke-width="2"/>
      <path id="Path_24774-27-13" data-name="Path 24774-27" d="M27.127,13.512A13.564,13.564,0,1,1,13.5,0,13.563,13.563,0,0,1,27.127,13.512Z" transform="translate(2952.284 1139.482) rotate(90)" fill="none" stroke="#3c3b3b" stroke-miterlimit="10" stroke-width="2"/>
    </g>
    <g id="Group_494" data-name="Group 494" transform="translate(-2935 -1060)">
      <path id="Path_24772-27-14" data-name="Path 24772-27" d="M35.871,0c.947.241,1.9.459,2.84.724a16.985,16.985,0,0,1-2.665,33.2c-.623.071-1.229.147-1.914.228-.149,1.1-.237,2.2-.455,3.28a17.01,17.01,0,0,1-33.4-.394A8.285,8.285,0,0,0,0,36.122V31.887a2.377,2.377,0,0,0,.232-.531,16.9,16.9,0,0,1,13.526-14c1.038-.208,2.1-.289,3.147-.428.081-.673.15-1.246.218-1.818A16.929,16.929,0,0,1,29.654.61C30.484.388,31.314.2,32.145,0Zm11.7,17A13.564,13.564,0,1,0,34.04,30.6l.143,0A13.677,13.677,0,0,0,47.576,17Z" transform="translate(2955.775 1119.041) rotate(90)" fill="none" stroke="#3c3b3b" stroke-miterlimit="10" stroke-width="2"/>
      <path id="Path_24774-27-14" data-name="Path 24774-27" d="M27.127,13.512A13.564,13.564,0,1,1,13.5,0,13.563,13.563,0,0,1,27.127,13.512Z" transform="translate(2952.284 1139.482) rotate(90)" fill="none" stroke="#3c3b3b" stroke-miterlimit="10" stroke-width="2"/>
    </g>
    <g id="Group_495" data-name="Group 495" transform="translate(-2813 -1073)">
      <path id="Path_24772-27-15" data-name="Path 24772-27" d="M35.871,0c.947.241,1.9.459,2.84.724a16.985,16.985,0,0,1-2.665,33.2c-.623.071-1.229.147-1.914.228-.149,1.1-.237,2.2-.455,3.28a17.01,17.01,0,0,1-33.4-.394A8.285,8.285,0,0,0,0,36.122V31.887a2.377,2.377,0,0,0,.232-.531,16.9,16.9,0,0,1,13.526-14c1.038-.208,2.1-.289,3.147-.428.081-.673.15-1.246.218-1.818A16.929,16.929,0,0,1,29.654.61C30.484.388,31.314.2,32.145,0Zm11.7,17A13.564,13.564,0,1,0,34.04,30.6l.143,0A13.677,13.677,0,0,0,47.576,17Z" transform="translate(2955.775 1119.041) rotate(90)" fill="none" stroke="#3c3b3b" stroke-miterlimit="10" stroke-width="2"/>
      <path id="Path_24774-27-15" data-name="Path 24774-27" d="M27.127,13.512A13.564,13.564,0,1,1,13.5,0,13.563,13.563,0,0,1,27.127,13.512Z" transform="translate(2952.284 1139.482) rotate(90)" fill="none" stroke="#3c3b3b" stroke-miterlimit="10" stroke-width="2"/>
    </g>
    <g id="Group_496" data-name="Group 496" transform="translate(-2826 -1060)">
      <path id="Path_24772-27-16" data-name="Path 24772-27" d="M35.871,0c.947.241,1.9.459,2.84.724a16.985,16.985,0,0,1-2.665,33.2c-.623.071-1.229.147-1.914.228-.149,1.1-.237,2.2-.455,3.28a17.01,17.01,0,0,1-33.4-.394A8.285,8.285,0,0,0,0,36.122V31.887a2.377,2.377,0,0,0,.232-.531,16.9,16.9,0,0,1,13.526-14c1.038-.208,2.1-.289,3.147-.428.081-.673.15-1.246.218-1.818A16.929,16.929,0,0,1,29.654.61C30.484.388,31.314.2,32.145,0Zm11.7,17A13.564,13.564,0,1,0,34.04,30.6l.143,0A13.677,13.677,0,0,0,47.576,17Z" transform="translate(2955.775 1119.041) rotate(90)" fill="none" stroke="#3c3b3b" stroke-miterlimit="10" stroke-width="2"/>
      <path id="Path_24774-27-16" data-name="Path 24774-27" d="M27.127,13.512A13.564,13.564,0,1,1,13.5,0,13.563,13.563,0,0,1,27.127,13.512Z" transform="translate(2952.284 1139.482) rotate(90)" fill="none" stroke="#3c3b3b" stroke-miterlimit="10" stroke-width="2"/>
    </g>
    <g id="Group_497" data-name="Group 497" transform="translate(-2867 -1019)">
      <path id="Path_24772-27-17" data-name="Path 24772-27" d="M35.871,0c.947.241,1.9.459,2.84.724a16.985,16.985,0,0,1-2.665,33.2c-.623.071-1.229.147-1.914.228-.149,1.1-.237,2.2-.455,3.28a17.01,17.01,0,0,1-33.4-.394A8.285,8.285,0,0,0,0,36.122V31.887a2.377,2.377,0,0,0,.232-.531,16.9,16.9,0,0,1,13.526-14c1.038-.208,2.1-.289,3.147-.428.081-.673.15-1.246.218-1.818A16.929,16.929,0,0,1,29.654.61C30.484.388,31.314.2,32.145,0Zm11.7,17A13.564,13.564,0,1,0,34.04,30.6l.143,0A13.677,13.677,0,0,0,47.576,17Z" transform="translate(2955.775 1119.041) rotate(90)" fill="none" stroke="#3c3b3b" stroke-miterlimit="10" stroke-width="2"/>
      <path id="Path_24774-27-17" data-name="Path 24774-27" d="M27.127,13.512A13.564,13.564,0,1,1,13.5,0,13.563,13.563,0,0,1,27.127,13.512Z" transform="translate(2952.284 1139.482) rotate(90)" fill="none" stroke="#3c3b3b" stroke-miterlimit="10" stroke-width="2"/>
    </g>
    <g id="Group_498" data-name="Group 498" transform="translate(-2922 -1019)">
      <path id="Path_24772-27-18" data-name="Path 24772-27" d="M35.871,0c.947.241,1.9.459,2.84.724a16.985,16.985,0,0,1-2.665,33.2c-.623.071-1.229.147-1.914.228-.149,1.1-.237,2.2-.455,3.28a17.01,17.01,0,0,1-33.4-.394A8.285,8.285,0,0,0,0,36.122V31.887a2.377,2.377,0,0,0,.232-.531,16.9,16.9,0,0,1,13.526-14c1.038-.208,2.1-.289,3.147-.428.081-.673.15-1.246.218-1.818A16.929,16.929,0,0,1,29.654.61C30.484.388,31.314.2,32.145,0Zm11.7,17A13.564,13.564,0,1,0,34.04,30.6l.143,0A13.677,13.677,0,0,0,47.576,17Z" transform="translate(2955.775 1119.041) rotate(90)" fill="none" stroke="#3c3b3b" stroke-miterlimit="10" stroke-width="2"/>
      <path id="Path_24774-27-18" data-name="Path 24774-27" d="M27.127,13.512A13.564,13.564,0,1,1,13.5,0,13.563,13.563,0,0,1,27.127,13.512Z" transform="translate(2952.284 1139.482) rotate(90)" fill="none" stroke="#3c3b3b" stroke-miterlimit="10" stroke-width="2"/>
    </g>
    <g id="Group_499" data-name="Group 499" transform="translate(-2813 -1019)">
      <path id="Path_24772-27-19" data-name="Path 24772-27" d="M35.871,0c.947.241,1.9.459,2.84.724a16.985,16.985,0,0,1-2.665,33.2c-.623.071-1.229.147-1.914.228-.149,1.1-.237,2.2-.455,3.28a17.01,17.01,0,0,1-33.4-.394A8.285,8.285,0,0,0,0,36.122V31.887a2.377,2.377,0,0,0,.232-.531,16.9,16.9,0,0,1,13.526-14c1.038-.208,2.1-.289,3.147-.428.081-.673.15-1.246.218-1.818A16.929,16.929,0,0,1,29.654.61C30.484.388,31.314.2,32.145,0Zm11.7,17A13.564,13.564,0,1,0,34.04,30.6l.143,0A13.677,13.677,0,0,0,47.576,17Z" transform="translate(2955.775 1119.041) rotate(90)" fill="none" stroke="#3c3b3b" stroke-miterlimit="10" stroke-width="2"/>
      <path id="Path_24774-27-19" data-name="Path 24774-27" d="M27.127,13.512A13.564,13.564,0,1,1,13.5,0,13.563,13.563,0,0,1,27.127,13.512Z" transform="translate(2952.284 1139.482) rotate(90)" fill="none" stroke="#3c3b3b" stroke-miterlimit="10" stroke-width="2"/>
    </g>
    <g id="Group_500" data-name="Group 500" transform="translate(-2880 -1169)">
      <path id="Path_24772-27-20" data-name="Path 24772-27" d="M35.871,0c.947.241,1.9.459,2.84.724a16.985,16.985,0,0,1-2.665,33.2c-.623.071-1.229.147-1.914.228-.149,1.1-.237,2.2-.455,3.28a17.01,17.01,0,0,1-33.4-.394A8.285,8.285,0,0,0,0,36.122V31.887a2.377,2.377,0,0,0,.232-.531,16.9,16.9,0,0,1,13.526-14c1.038-.208,2.1-.289,3.147-.428.081-.673.15-1.246.218-1.818A16.929,16.929,0,0,1,29.654.61C30.484.388,31.314.2,32.145,0Zm11.7,17A13.564,13.564,0,1,0,34.04,30.6l.143,0A13.677,13.677,0,0,0,47.576,17Z" transform="translate(2955.775 1119.041) rotate(90)" fill="none" stroke="#3c3b3b" stroke-miterlimit="10" stroke-width="2"/>
      <path id="Path_24774-27-20" data-name="Path 24774-27" d="M27.127,13.512A13.564,13.564,0,1,1,13.5,0,13.563,13.563,0,0,1,27.127,13.512Z" transform="translate(2952.284 1139.482) rotate(90)" fill="none" stroke="#3c3b3b" stroke-miterlimit="10" stroke-width="2"/>
    </g>
    <g id="Group_501" data-name="Group 501" transform="translate(-2934 -1169)">
      <path id="Path_24772-27-21" data-name="Path 24772-27" d="M35.871,0c.947.241,1.9.459,2.84.724a16.985,16.985,0,0,1-2.665,33.2c-.623.071-1.229.147-1.914.228-.149,1.1-.237,2.2-.455,3.28a17.01,17.01,0,0,1-33.4-.394A8.285,8.285,0,0,0,0,36.122V31.887a2.377,2.377,0,0,0,.232-.531,16.9,16.9,0,0,1,13.526-14c1.038-.208,2.1-.289,3.147-.428.081-.673.15-1.246.218-1.818A16.929,16.929,0,0,1,29.654.61C30.484.388,31.314.2,32.145,0Zm11.7,17A13.564,13.564,0,1,0,34.04,30.6l.143,0A13.677,13.677,0,0,0,47.576,17Z" transform="translate(2955.775 1119.041) rotate(90)" fill="none" stroke="#3c3b3b" stroke-miterlimit="10" stroke-width="2"/>
      <path id="Path_24774-27-21" data-name="Path 24774-27" d="M27.127,13.512A13.564,13.564,0,1,1,13.5,0,13.563,13.563,0,0,1,27.127,13.512Z" transform="translate(2952.284 1139.482) rotate(90)" fill="none" stroke="#3c3b3b" stroke-miterlimit="10" stroke-width="2"/>
    </g>
  </g>
</svg>
