<svg xmlns="http://www.w3.org/2000/svg" xmlns:xlink="http://www.w3.org/1999/xlink" width="408.28" height="481.36" viewBox="0 0 408.28 481.36">
  <defs>
    <clipPath id="clip-path">
      <rect width="408.28" height="481.36" fill="none"/>
    </clipPath>
  </defs>
  <g id="Repeat_Grid_4" data-name="Repeat Grid 4" clip-path="url(#clip-path)">
    <g transform="translate(-25.347 -20.181)">
      <path id="Path_24850" data-name="Path 24850" d="M202.276,532.388a6.519,6.519,0,1,1-13.037-.133,6.519,6.519,0,0,1,13.037.133Z" transform="translate(-130.658 -472.457)" fill="none" stroke="#1a1a1a" stroke-miterlimit="10" stroke-width="1"/>
      <path id="Path_24851" data-name="Path 24851" d="M147.913,477.983a6.534,6.534,0,1,1-6.563-6.509A6.564,6.564,0,0,1,147.913,477.983Z" transform="translate(-108.998 -450.792)" fill="none" stroke="#1a1a1a" stroke-miterlimit="10" stroke-width="1"/>
    </g>
    <g transform="translate(41.653 -20.181)">
      <path id="Path_24850-2" data-name="Path 24850" d="M202.276,532.388a6.519,6.519,0,1,1-13.037-.133,6.519,6.519,0,0,1,13.037.133Z" transform="translate(-130.658 -472.457)" fill="none" stroke="#1a1a1a" stroke-miterlimit="10" stroke-width="1"/>
      <path id="Path_24851-2" data-name="Path 24851" d="M147.913,477.983a6.534,6.534,0,1,1-6.563-6.509A6.564,6.564,0,0,1,147.913,477.983Z" transform="translate(-108.998 -450.792)" fill="none" stroke="#1a1a1a" stroke-miterlimit="10" stroke-width="1"/>
    </g>
    <g transform="translate(108.653 -20.181)">
      <path id="Path_24850-3" data-name="Path 24850" d="M202.276,532.388a6.519,6.519,0,1,1-13.037-.133,6.519,6.519,0,0,1,13.037.133Z" transform="translate(-130.658 -472.457)" fill="none" stroke="#1a1a1a" stroke-miterlimit="10" stroke-width="1"/>
      <path id="Path_24851-3" data-name="Path 24851" d="M147.913,477.983a6.534,6.534,0,1,1-6.563-6.509A6.564,6.564,0,0,1,147.913,477.983Z" transform="translate(-108.998 -450.792)" fill="none" stroke="#1a1a1a" stroke-miterlimit="10" stroke-width="1"/>
    </g>
    <g transform="translate(175.653 -20.181)">
      <path id="Path_24850-4" data-name="Path 24850" d="M202.276,532.388a6.519,6.519,0,1,1-13.037-.133,6.519,6.519,0,0,1,13.037.133Z" transform="translate(-130.658 -472.457)" fill="none" stroke="#1a1a1a" stroke-miterlimit="10" stroke-width="1"/>
      <path id="Path_24851-4" data-name="Path 24851" d="M147.913,477.983a6.534,6.534,0,1,1-6.563-6.509A6.564,6.564,0,0,1,147.913,477.983Z" transform="translate(-108.998 -450.792)" fill="none" stroke="#1a1a1a" stroke-miterlimit="10" stroke-width="1"/>
    </g>
    <g transform="translate(242.653 -20.181)">
      <path id="Path_24850-5" data-name="Path 24850" d="M202.276,532.388a6.519,6.519,0,1,1-13.037-.133,6.519,6.519,0,0,1,13.037.133Z" transform="translate(-130.658 -472.457)" fill="none" stroke="#1a1a1a" stroke-miterlimit="10" stroke-width="1"/>
      <path id="Path_24851-5" data-name="Path 24851" d="M147.913,477.983a6.534,6.534,0,1,1-6.563-6.509A6.564,6.564,0,0,1,147.913,477.983Z" transform="translate(-108.998 -450.792)" fill="none" stroke="#1a1a1a" stroke-miterlimit="10" stroke-width="1"/>
    </g>
    <g transform="translate(309.653 -20.181)">
      <path id="Path_24850-6" data-name="Path 24850" d="M202.276,532.388a6.519,6.519,0,1,1-13.037-.133,6.519,6.519,0,0,1,13.037.133Z" transform="translate(-130.658 -472.457)" fill="none" stroke="#1a1a1a" stroke-miterlimit="10" stroke-width="1"/>
      <path id="Path_24851-6" data-name="Path 24851" d="M147.913,477.983a6.534,6.534,0,1,1-6.563-6.509A6.564,6.564,0,0,1,147.913,477.983Z" transform="translate(-108.998 -450.792)" fill="none" stroke="#1a1a1a" stroke-miterlimit="10" stroke-width="1"/>
    </g>
    <g transform="translate(376.653 -20.181)">
      <path id="Path_24850-7" data-name="Path 24850" d="M202.276,532.388a6.519,6.519,0,1,1-13.037-.133,6.519,6.519,0,0,1,13.037.133Z" transform="translate(-130.658 -472.457)" fill="none" stroke="#1a1a1a" stroke-miterlimit="10" stroke-width="1"/>
      <path id="Path_24851-7" data-name="Path 24851" d="M147.913,477.983a6.534,6.534,0,1,1-6.563-6.509A6.564,6.564,0,0,1,147.913,477.983Z" transform="translate(-108.998 -450.792)" fill="none" stroke="#1a1a1a" stroke-miterlimit="10" stroke-width="1"/>
    </g>
    <g transform="translate(-25.347 46.819)">
      <path id="Path_24850-8" data-name="Path 24850" d="M202.276,532.388a6.519,6.519,0,1,1-13.037-.133,6.519,6.519,0,0,1,13.037.133Z" transform="translate(-130.658 -472.457)" fill="none" stroke="#1a1a1a" stroke-miterlimit="10" stroke-width="1"/>
      <path id="Path_24851-8" data-name="Path 24851" d="M147.913,477.983a6.534,6.534,0,1,1-6.563-6.509A6.564,6.564,0,0,1,147.913,477.983Z" transform="translate(-108.998 -450.792)" fill="none" stroke="#1a1a1a" stroke-miterlimit="10" stroke-width="1"/>
    </g>
    <g transform="translate(41.653 46.819)">
      <path id="Path_24850-9" data-name="Path 24850" d="M202.276,532.388a6.519,6.519,0,1,1-13.037-.133,6.519,6.519,0,0,1,13.037.133Z" transform="translate(-130.658 -472.457)" fill="none" stroke="#1a1a1a" stroke-miterlimit="10" stroke-width="1"/>
      <path id="Path_24851-9" data-name="Path 24851" d="M147.913,477.983a6.534,6.534,0,1,1-6.563-6.509A6.564,6.564,0,0,1,147.913,477.983Z" transform="translate(-108.998 -450.792)" fill="none" stroke="#1a1a1a" stroke-miterlimit="10" stroke-width="1"/>
    </g>
    <g transform="translate(108.653 46.819)">
      <path id="Path_24850-10" data-name="Path 24850" d="M202.276,532.388a6.519,6.519,0,1,1-13.037-.133,6.519,6.519,0,0,1,13.037.133Z" transform="translate(-130.658 -472.457)" fill="none" stroke="#1a1a1a" stroke-miterlimit="10" stroke-width="1"/>
      <path id="Path_24851-10" data-name="Path 24851" d="M147.913,477.983a6.534,6.534,0,1,1-6.563-6.509A6.564,6.564,0,0,1,147.913,477.983Z" transform="translate(-108.998 -450.792)" fill="none" stroke="#1a1a1a" stroke-miterlimit="10" stroke-width="1"/>
    </g>
    <g transform="translate(175.653 46.819)">
      <path id="Path_24850-11" data-name="Path 24850" d="M202.276,532.388a6.519,6.519,0,1,1-13.037-.133,6.519,6.519,0,0,1,13.037.133Z" transform="translate(-130.658 -472.457)" fill="none" stroke="#1a1a1a" stroke-miterlimit="10" stroke-width="1"/>
      <path id="Path_24851-11" data-name="Path 24851" d="M147.913,477.983a6.534,6.534,0,1,1-6.563-6.509A6.564,6.564,0,0,1,147.913,477.983Z" transform="translate(-108.998 -450.792)" fill="none" stroke="#1a1a1a" stroke-miterlimit="10" stroke-width="1"/>
    </g>
    <g transform="translate(242.653 46.819)">
      <path id="Path_24850-12" data-name="Path 24850" d="M202.276,532.388a6.519,6.519,0,1,1-13.037-.133,6.519,6.519,0,0,1,13.037.133Z" transform="translate(-130.658 -472.457)" fill="none" stroke="#1a1a1a" stroke-miterlimit="10" stroke-width="1"/>
      <path id="Path_24851-12" data-name="Path 24851" d="M147.913,477.983a6.534,6.534,0,1,1-6.563-6.509A6.564,6.564,0,0,1,147.913,477.983Z" transform="translate(-108.998 -450.792)" fill="none" stroke="#1a1a1a" stroke-miterlimit="10" stroke-width="1"/>
    </g>
    <g transform="translate(309.653 46.819)">
      <path id="Path_24850-13" data-name="Path 24850" d="M202.276,532.388a6.519,6.519,0,1,1-13.037-.133,6.519,6.519,0,0,1,13.037.133Z" transform="translate(-130.658 -472.457)" fill="none" stroke="#1a1a1a" stroke-miterlimit="10" stroke-width="1"/>
      <path id="Path_24851-13" data-name="Path 24851" d="M147.913,477.983a6.534,6.534,0,1,1-6.563-6.509A6.564,6.564,0,0,1,147.913,477.983Z" transform="translate(-108.998 -450.792)" fill="none" stroke="#1a1a1a" stroke-miterlimit="10" stroke-width="1"/>
    </g>
    <g transform="translate(376.653 46.819)">
      <path id="Path_24850-14" data-name="Path 24850" d="M202.276,532.388a6.519,6.519,0,1,1-13.037-.133,6.519,6.519,0,0,1,13.037.133Z" transform="translate(-130.658 -472.457)" fill="none" stroke="#1a1a1a" stroke-miterlimit="10" stroke-width="1"/>
      <path id="Path_24851-14" data-name="Path 24851" d="M147.913,477.983a6.534,6.534,0,1,1-6.563-6.509A6.564,6.564,0,0,1,147.913,477.983Z" transform="translate(-108.998 -450.792)" fill="none" stroke="#1a1a1a" stroke-miterlimit="10" stroke-width="1"/>
    </g>
    <g transform="translate(-25.347 113.819)">
      <path id="Path_24850-15" data-name="Path 24850" d="M202.276,532.388a6.519,6.519,0,1,1-13.037-.133,6.519,6.519,0,0,1,13.037.133Z" transform="translate(-130.658 -472.457)" fill="none" stroke="#1a1a1a" stroke-miterlimit="10" stroke-width="1"/>
      <path id="Path_24851-15" data-name="Path 24851" d="M147.913,477.983a6.534,6.534,0,1,1-6.563-6.509A6.564,6.564,0,0,1,147.913,477.983Z" transform="translate(-108.998 -450.792)" fill="none" stroke="#1a1a1a" stroke-miterlimit="10" stroke-width="1"/>
    </g>
    <g transform="translate(41.653 113.819)">
      <path id="Path_24850-16" data-name="Path 24850" d="M202.276,532.388a6.519,6.519,0,1,1-13.037-.133,6.519,6.519,0,0,1,13.037.133Z" transform="translate(-130.658 -472.457)" fill="none" stroke="#1a1a1a" stroke-miterlimit="10" stroke-width="1"/>
      <path id="Path_24851-16" data-name="Path 24851" d="M147.913,477.983a6.534,6.534,0,1,1-6.563-6.509A6.564,6.564,0,0,1,147.913,477.983Z" transform="translate(-108.998 -450.792)" fill="none" stroke="#1a1a1a" stroke-miterlimit="10" stroke-width="1"/>
    </g>
    <g transform="translate(108.653 113.819)">
      <path id="Path_24850-17" data-name="Path 24850" d="M202.276,532.388a6.519,6.519,0,1,1-13.037-.133,6.519,6.519,0,0,1,13.037.133Z" transform="translate(-130.658 -472.457)" fill="none" stroke="#1a1a1a" stroke-miterlimit="10" stroke-width="1"/>
      <path id="Path_24851-17" data-name="Path 24851" d="M147.913,477.983a6.534,6.534,0,1,1-6.563-6.509A6.564,6.564,0,0,1,147.913,477.983Z" transform="translate(-108.998 -450.792)" fill="none" stroke="#1a1a1a" stroke-miterlimit="10" stroke-width="1"/>
    </g>
    <g transform="translate(175.653 113.819)">
      <path id="Path_24850-18" data-name="Path 24850" d="M202.276,532.388a6.519,6.519,0,1,1-13.037-.133,6.519,6.519,0,0,1,13.037.133Z" transform="translate(-130.658 -472.457)" fill="none" stroke="#1a1a1a" stroke-miterlimit="10" stroke-width="1"/>
      <path id="Path_24851-18" data-name="Path 24851" d="M147.913,477.983a6.534,6.534,0,1,1-6.563-6.509A6.564,6.564,0,0,1,147.913,477.983Z" transform="translate(-108.998 -450.792)" fill="none" stroke="#1a1a1a" stroke-miterlimit="10" stroke-width="1"/>
    </g>
    <g transform="translate(242.653 113.819)">
      <path id="Path_24850-19" data-name="Path 24850" d="M202.276,532.388a6.519,6.519,0,1,1-13.037-.133,6.519,6.519,0,0,1,13.037.133Z" transform="translate(-130.658 -472.457)" fill="none" stroke="#1a1a1a" stroke-miterlimit="10" stroke-width="1"/>
      <path id="Path_24851-19" data-name="Path 24851" d="M147.913,477.983a6.534,6.534,0,1,1-6.563-6.509A6.564,6.564,0,0,1,147.913,477.983Z" transform="translate(-108.998 -450.792)" fill="none" stroke="#1a1a1a" stroke-miterlimit="10" stroke-width="1"/>
    </g>
    <g transform="translate(309.653 113.819)">
      <path id="Path_24850-20" data-name="Path 24850" d="M202.276,532.388a6.519,6.519,0,1,1-13.037-.133,6.519,6.519,0,0,1,13.037.133Z" transform="translate(-130.658 -472.457)" fill="none" stroke="#1a1a1a" stroke-miterlimit="10" stroke-width="1"/>
      <path id="Path_24851-20" data-name="Path 24851" d="M147.913,477.983a6.534,6.534,0,1,1-6.563-6.509A6.564,6.564,0,0,1,147.913,477.983Z" transform="translate(-108.998 -450.792)" fill="none" stroke="#1a1a1a" stroke-miterlimit="10" stroke-width="1"/>
    </g>
    <g transform="translate(376.653 113.819)">
      <path id="Path_24850-21" data-name="Path 24850" d="M202.276,532.388a6.519,6.519,0,1,1-13.037-.133,6.519,6.519,0,0,1,13.037.133Z" transform="translate(-130.658 -472.457)" fill="none" stroke="#1a1a1a" stroke-miterlimit="10" stroke-width="1"/>
      <path id="Path_24851-21" data-name="Path 24851" d="M147.913,477.983a6.534,6.534,0,1,1-6.563-6.509A6.564,6.564,0,0,1,147.913,477.983Z" transform="translate(-108.998 -450.792)" fill="none" stroke="#1a1a1a" stroke-miterlimit="10" stroke-width="1"/>
    </g>
    <g transform="translate(-25.347 180.819)">
      <path id="Path_24850-22" data-name="Path 24850" d="M202.276,532.388a6.519,6.519,0,1,1-13.037-.133,6.519,6.519,0,0,1,13.037.133Z" transform="translate(-130.658 -472.457)" fill="none" stroke="#1a1a1a" stroke-miterlimit="10" stroke-width="1"/>
      <path id="Path_24851-22" data-name="Path 24851" d="M147.913,477.983a6.534,6.534,0,1,1-6.563-6.509A6.564,6.564,0,0,1,147.913,477.983Z" transform="translate(-108.998 -450.792)" fill="none" stroke="#1a1a1a" stroke-miterlimit="10" stroke-width="1"/>
    </g>
    <g transform="translate(41.653 180.819)">
      <path id="Path_24850-23" data-name="Path 24850" d="M202.276,532.388a6.519,6.519,0,1,1-13.037-.133,6.519,6.519,0,0,1,13.037.133Z" transform="translate(-130.658 -472.457)" fill="none" stroke="#1a1a1a" stroke-miterlimit="10" stroke-width="1"/>
      <path id="Path_24851-23" data-name="Path 24851" d="M147.913,477.983a6.534,6.534,0,1,1-6.563-6.509A6.564,6.564,0,0,1,147.913,477.983Z" transform="translate(-108.998 -450.792)" fill="none" stroke="#1a1a1a" stroke-miterlimit="10" stroke-width="1"/>
    </g>
    <g transform="translate(108.653 180.819)">
      <path id="Path_24850-24" data-name="Path 24850" d="M202.276,532.388a6.519,6.519,0,1,1-13.037-.133,6.519,6.519,0,0,1,13.037.133Z" transform="translate(-130.658 -472.457)" fill="none" stroke="#1a1a1a" stroke-miterlimit="10" stroke-width="1"/>
      <path id="Path_24851-24" data-name="Path 24851" d="M147.913,477.983a6.534,6.534,0,1,1-6.563-6.509A6.564,6.564,0,0,1,147.913,477.983Z" transform="translate(-108.998 -450.792)" fill="none" stroke="#1a1a1a" stroke-miterlimit="10" stroke-width="1"/>
    </g>
    <g transform="translate(175.653 180.819)">
      <path id="Path_24850-25" data-name="Path 24850" d="M202.276,532.388a6.519,6.519,0,1,1-13.037-.133,6.519,6.519,0,0,1,13.037.133Z" transform="translate(-130.658 -472.457)" fill="none" stroke="#1a1a1a" stroke-miterlimit="10" stroke-width="1"/>
      <path id="Path_24851-25" data-name="Path 24851" d="M147.913,477.983a6.534,6.534,0,1,1-6.563-6.509A6.564,6.564,0,0,1,147.913,477.983Z" transform="translate(-108.998 -450.792)" fill="none" stroke="#1a1a1a" stroke-miterlimit="10" stroke-width="1"/>
    </g>
    <g transform="translate(242.653 180.819)">
      <path id="Path_24850-26" data-name="Path 24850" d="M202.276,532.388a6.519,6.519,0,1,1-13.037-.133,6.519,6.519,0,0,1,13.037.133Z" transform="translate(-130.658 -472.457)" fill="none" stroke="#1a1a1a" stroke-miterlimit="10" stroke-width="1"/>
      <path id="Path_24851-26" data-name="Path 24851" d="M147.913,477.983a6.534,6.534,0,1,1-6.563-6.509A6.564,6.564,0,0,1,147.913,477.983Z" transform="translate(-108.998 -450.792)" fill="none" stroke="#1a1a1a" stroke-miterlimit="10" stroke-width="1"/>
    </g>
    <g transform="translate(309.653 180.819)">
      <path id="Path_24850-27" data-name="Path 24850" d="M202.276,532.388a6.519,6.519,0,1,1-13.037-.133,6.519,6.519,0,0,1,13.037.133Z" transform="translate(-130.658 -472.457)" fill="none" stroke="#1a1a1a" stroke-miterlimit="10" stroke-width="1"/>
      <path id="Path_24851-27" data-name="Path 24851" d="M147.913,477.983a6.534,6.534,0,1,1-6.563-6.509A6.564,6.564,0,0,1,147.913,477.983Z" transform="translate(-108.998 -450.792)" fill="none" stroke="#1a1a1a" stroke-miterlimit="10" stroke-width="1"/>
    </g>
    <g transform="translate(376.653 180.819)">
      <path id="Path_24850-28" data-name="Path 24850" d="M202.276,532.388a6.519,6.519,0,1,1-13.037-.133,6.519,6.519,0,0,1,13.037.133Z" transform="translate(-130.658 -472.457)" fill="none" stroke="#1a1a1a" stroke-miterlimit="10" stroke-width="1"/>
      <path id="Path_24851-28" data-name="Path 24851" d="M147.913,477.983a6.534,6.534,0,1,1-6.563-6.509A6.564,6.564,0,0,1,147.913,477.983Z" transform="translate(-108.998 -450.792)" fill="none" stroke="#1a1a1a" stroke-miterlimit="10" stroke-width="1"/>
    </g>
    <g transform="translate(-25.347 247.819)">
      <path id="Path_24850-29" data-name="Path 24850" d="M202.276,532.388a6.519,6.519,0,1,1-13.037-.133,6.519,6.519,0,0,1,13.037.133Z" transform="translate(-130.658 -472.457)" fill="none" stroke="#1a1a1a" stroke-miterlimit="10" stroke-width="1"/>
      <path id="Path_24851-29" data-name="Path 24851" d="M147.913,477.983a6.534,6.534,0,1,1-6.563-6.509A6.564,6.564,0,0,1,147.913,477.983Z" transform="translate(-108.998 -450.792)" fill="none" stroke="#1a1a1a" stroke-miterlimit="10" stroke-width="1"/>
    </g>
    <g transform="translate(41.653 247.819)">
      <path id="Path_24850-30" data-name="Path 24850" d="M202.276,532.388a6.519,6.519,0,1,1-13.037-.133,6.519,6.519,0,0,1,13.037.133Z" transform="translate(-130.658 -472.457)" fill="none" stroke="#1a1a1a" stroke-miterlimit="10" stroke-width="1"/>
      <path id="Path_24851-30" data-name="Path 24851" d="M147.913,477.983a6.534,6.534,0,1,1-6.563-6.509A6.564,6.564,0,0,1,147.913,477.983Z" transform="translate(-108.998 -450.792)" fill="none" stroke="#1a1a1a" stroke-miterlimit="10" stroke-width="1"/>
    </g>
    <g transform="translate(108.653 247.819)">
      <path id="Path_24850-31" data-name="Path 24850" d="M202.276,532.388a6.519,6.519,0,1,1-13.037-.133,6.519,6.519,0,0,1,13.037.133Z" transform="translate(-130.658 -472.457)" fill="none" stroke="#1a1a1a" stroke-miterlimit="10" stroke-width="1"/>
      <path id="Path_24851-31" data-name="Path 24851" d="M147.913,477.983a6.534,6.534,0,1,1-6.563-6.509A6.564,6.564,0,0,1,147.913,477.983Z" transform="translate(-108.998 -450.792)" fill="none" stroke="#1a1a1a" stroke-miterlimit="10" stroke-width="1"/>
    </g>
    <g transform="translate(175.653 247.819)">
      <path id="Path_24850-32" data-name="Path 24850" d="M202.276,532.388a6.519,6.519,0,1,1-13.037-.133,6.519,6.519,0,0,1,13.037.133Z" transform="translate(-130.658 -472.457)" fill="none" stroke="#1a1a1a" stroke-miterlimit="10" stroke-width="1"/>
      <path id="Path_24851-32" data-name="Path 24851" d="M147.913,477.983a6.534,6.534,0,1,1-6.563-6.509A6.564,6.564,0,0,1,147.913,477.983Z" transform="translate(-108.998 -450.792)" fill="none" stroke="#1a1a1a" stroke-miterlimit="10" stroke-width="1"/>
    </g>
    <g transform="translate(242.653 247.819)">
      <path id="Path_24850-33" data-name="Path 24850" d="M202.276,532.388a6.519,6.519,0,1,1-13.037-.133,6.519,6.519,0,0,1,13.037.133Z" transform="translate(-130.658 -472.457)" fill="none" stroke="#1a1a1a" stroke-miterlimit="10" stroke-width="1"/>
      <path id="Path_24851-33" data-name="Path 24851" d="M147.913,477.983a6.534,6.534,0,1,1-6.563-6.509A6.564,6.564,0,0,1,147.913,477.983Z" transform="translate(-108.998 -450.792)" fill="none" stroke="#1a1a1a" stroke-miterlimit="10" stroke-width="1"/>
    </g>
    <g transform="translate(309.653 247.819)">
      <path id="Path_24850-34" data-name="Path 24850" d="M202.276,532.388a6.519,6.519,0,1,1-13.037-.133,6.519,6.519,0,0,1,13.037.133Z" transform="translate(-130.658 -472.457)" fill="none" stroke="#1a1a1a" stroke-miterlimit="10" stroke-width="1"/>
      <path id="Path_24851-34" data-name="Path 24851" d="M147.913,477.983a6.534,6.534,0,1,1-6.563-6.509A6.564,6.564,0,0,1,147.913,477.983Z" transform="translate(-108.998 -450.792)" fill="none" stroke="#1a1a1a" stroke-miterlimit="10" stroke-width="1"/>
    </g>
    <g transform="translate(376.653 247.819)">
      <path id="Path_24850-35" data-name="Path 24850" d="M202.276,532.388a6.519,6.519,0,1,1-13.037-.133,6.519,6.519,0,0,1,13.037.133Z" transform="translate(-130.658 -472.457)" fill="none" stroke="#1a1a1a" stroke-miterlimit="10" stroke-width="1"/>
      <path id="Path_24851-35" data-name="Path 24851" d="M147.913,477.983a6.534,6.534,0,1,1-6.563-6.509A6.564,6.564,0,0,1,147.913,477.983Z" transform="translate(-108.998 -450.792)" fill="none" stroke="#1a1a1a" stroke-miterlimit="10" stroke-width="1"/>
    </g>
    <g transform="translate(-25.347 314.819)">
      <path id="Path_24850-36" data-name="Path 24850" d="M202.276,532.388a6.519,6.519,0,1,1-13.037-.133,6.519,6.519,0,0,1,13.037.133Z" transform="translate(-130.658 -472.457)" fill="none" stroke="#1a1a1a" stroke-miterlimit="10" stroke-width="1"/>
      <path id="Path_24851-36" data-name="Path 24851" d="M147.913,477.983a6.534,6.534,0,1,1-6.563-6.509A6.564,6.564,0,0,1,147.913,477.983Z" transform="translate(-108.998 -450.792)" fill="none" stroke="#1a1a1a" stroke-miterlimit="10" stroke-width="1"/>
    </g>
    <g transform="translate(41.653 314.819)">
      <path id="Path_24850-37" data-name="Path 24850" d="M202.276,532.388a6.519,6.519,0,1,1-13.037-.133,6.519,6.519,0,0,1,13.037.133Z" transform="translate(-130.658 -472.457)" fill="none" stroke="#1a1a1a" stroke-miterlimit="10" stroke-width="1"/>
      <path id="Path_24851-37" data-name="Path 24851" d="M147.913,477.983a6.534,6.534,0,1,1-6.563-6.509A6.564,6.564,0,0,1,147.913,477.983Z" transform="translate(-108.998 -450.792)" fill="none" stroke="#1a1a1a" stroke-miterlimit="10" stroke-width="1"/>
    </g>
    <g transform="translate(108.653 314.819)">
      <path id="Path_24850-38" data-name="Path 24850" d="M202.276,532.388a6.519,6.519,0,1,1-13.037-.133,6.519,6.519,0,0,1,13.037.133Z" transform="translate(-130.658 -472.457)" fill="none" stroke="#1a1a1a" stroke-miterlimit="10" stroke-width="1"/>
      <path id="Path_24851-38" data-name="Path 24851" d="M147.913,477.983a6.534,6.534,0,1,1-6.563-6.509A6.564,6.564,0,0,1,147.913,477.983Z" transform="translate(-108.998 -450.792)" fill="none" stroke="#1a1a1a" stroke-miterlimit="10" stroke-width="1"/>
    </g>
    <g transform="translate(175.653 314.819)">
      <path id="Path_24850-39" data-name="Path 24850" d="M202.276,532.388a6.519,6.519,0,1,1-13.037-.133,6.519,6.519,0,0,1,13.037.133Z" transform="translate(-130.658 -472.457)" fill="none" stroke="#1a1a1a" stroke-miterlimit="10" stroke-width="1"/>
      <path id="Path_24851-39" data-name="Path 24851" d="M147.913,477.983a6.534,6.534,0,1,1-6.563-6.509A6.564,6.564,0,0,1,147.913,477.983Z" transform="translate(-108.998 -450.792)" fill="none" stroke="#1a1a1a" stroke-miterlimit="10" stroke-width="1"/>
    </g>
    <g transform="translate(242.653 314.819)">
      <path id="Path_24850-40" data-name="Path 24850" d="M202.276,532.388a6.519,6.519,0,1,1-13.037-.133,6.519,6.519,0,0,1,13.037.133Z" transform="translate(-130.658 -472.457)" fill="none" stroke="#1a1a1a" stroke-miterlimit="10" stroke-width="1"/>
      <path id="Path_24851-40" data-name="Path 24851" d="M147.913,477.983a6.534,6.534,0,1,1-6.563-6.509A6.564,6.564,0,0,1,147.913,477.983Z" transform="translate(-108.998 -450.792)" fill="none" stroke="#1a1a1a" stroke-miterlimit="10" stroke-width="1"/>
    </g>
    <g transform="translate(309.653 314.819)">
      <path id="Path_24850-41" data-name="Path 24850" d="M202.276,532.388a6.519,6.519,0,1,1-13.037-.133,6.519,6.519,0,0,1,13.037.133Z" transform="translate(-130.658 -472.457)" fill="none" stroke="#1a1a1a" stroke-miterlimit="10" stroke-width="1"/>
      <path id="Path_24851-41" data-name="Path 24851" d="M147.913,477.983a6.534,6.534,0,1,1-6.563-6.509A6.564,6.564,0,0,1,147.913,477.983Z" transform="translate(-108.998 -450.792)" fill="none" stroke="#1a1a1a" stroke-miterlimit="10" stroke-width="1"/>
    </g>
    <g transform="translate(376.653 314.819)">
      <path id="Path_24850-42" data-name="Path 24850" d="M202.276,532.388a6.519,6.519,0,1,1-13.037-.133,6.519,6.519,0,0,1,13.037.133Z" transform="translate(-130.658 -472.457)" fill="none" stroke="#1a1a1a" stroke-miterlimit="10" stroke-width="1"/>
      <path id="Path_24851-42" data-name="Path 24851" d="M147.913,477.983a6.534,6.534,0,1,1-6.563-6.509A6.564,6.564,0,0,1,147.913,477.983Z" transform="translate(-108.998 -450.792)" fill="none" stroke="#1a1a1a" stroke-miterlimit="10" stroke-width="1"/>
    </g>
    <g transform="translate(-25.347 381.819)">
      <path id="Path_24850-43" data-name="Path 24850" d="M202.276,532.388a6.519,6.519,0,1,1-13.037-.133,6.519,6.519,0,0,1,13.037.133Z" transform="translate(-130.658 -472.457)" fill="none" stroke="#1a1a1a" stroke-miterlimit="10" stroke-width="1"/>
      <path id="Path_24851-43" data-name="Path 24851" d="M147.913,477.983a6.534,6.534,0,1,1-6.563-6.509A6.564,6.564,0,0,1,147.913,477.983Z" transform="translate(-108.998 -450.792)" fill="none" stroke="#1a1a1a" stroke-miterlimit="10" stroke-width="1"/>
    </g>
    <g transform="translate(41.653 381.819)">
      <path id="Path_24850-44" data-name="Path 24850" d="M202.276,532.388a6.519,6.519,0,1,1-13.037-.133,6.519,6.519,0,0,1,13.037.133Z" transform="translate(-130.658 -472.457)" fill="none" stroke="#1a1a1a" stroke-miterlimit="10" stroke-width="1"/>
      <path id="Path_24851-44" data-name="Path 24851" d="M147.913,477.983a6.534,6.534,0,1,1-6.563-6.509A6.564,6.564,0,0,1,147.913,477.983Z" transform="translate(-108.998 -450.792)" fill="none" stroke="#1a1a1a" stroke-miterlimit="10" stroke-width="1"/>
    </g>
    <g transform="translate(108.653 381.819)">
      <path id="Path_24850-45" data-name="Path 24850" d="M202.276,532.388a6.519,6.519,0,1,1-13.037-.133,6.519,6.519,0,0,1,13.037.133Z" transform="translate(-130.658 -472.457)" fill="none" stroke="#1a1a1a" stroke-miterlimit="10" stroke-width="1"/>
      <path id="Path_24851-45" data-name="Path 24851" d="M147.913,477.983a6.534,6.534,0,1,1-6.563-6.509A6.564,6.564,0,0,1,147.913,477.983Z" transform="translate(-108.998 -450.792)" fill="none" stroke="#1a1a1a" stroke-miterlimit="10" stroke-width="1"/>
    </g>
    <g transform="translate(175.653 381.819)">
      <path id="Path_24850-46" data-name="Path 24850" d="M202.276,532.388a6.519,6.519,0,1,1-13.037-.133,6.519,6.519,0,0,1,13.037.133Z" transform="translate(-130.658 -472.457)" fill="none" stroke="#1a1a1a" stroke-miterlimit="10" stroke-width="1"/>
      <path id="Path_24851-46" data-name="Path 24851" d="M147.913,477.983a6.534,6.534,0,1,1-6.563-6.509A6.564,6.564,0,0,1,147.913,477.983Z" transform="translate(-108.998 -450.792)" fill="none" stroke="#1a1a1a" stroke-miterlimit="10" stroke-width="1"/>
    </g>
    <g transform="translate(242.653 381.819)">
      <path id="Path_24850-47" data-name="Path 24850" d="M202.276,532.388a6.519,6.519,0,1,1-13.037-.133,6.519,6.519,0,0,1,13.037.133Z" transform="translate(-130.658 -472.457)" fill="none" stroke="#1a1a1a" stroke-miterlimit="10" stroke-width="1"/>
      <path id="Path_24851-47" data-name="Path 24851" d="M147.913,477.983a6.534,6.534,0,1,1-6.563-6.509A6.564,6.564,0,0,1,147.913,477.983Z" transform="translate(-108.998 -450.792)" fill="none" stroke="#1a1a1a" stroke-miterlimit="10" stroke-width="1"/>
    </g>
    <g transform="translate(309.653 381.819)">
      <path id="Path_24850-48" data-name="Path 24850" d="M202.276,532.388a6.519,6.519,0,1,1-13.037-.133,6.519,6.519,0,0,1,13.037.133Z" transform="translate(-130.658 -472.457)" fill="none" stroke="#1a1a1a" stroke-miterlimit="10" stroke-width="1"/>
      <path id="Path_24851-48" data-name="Path 24851" d="M147.913,477.983a6.534,6.534,0,1,1-6.563-6.509A6.564,6.564,0,0,1,147.913,477.983Z" transform="translate(-108.998 -450.792)" fill="none" stroke="#1a1a1a" stroke-miterlimit="10" stroke-width="1"/>
    </g>
    <g transform="translate(376.653 381.819)">
      <path id="Path_24850-49" data-name="Path 24850" d="M202.276,532.388a6.519,6.519,0,1,1-13.037-.133,6.519,6.519,0,0,1,13.037.133Z" transform="translate(-130.658 -472.457)" fill="none" stroke="#1a1a1a" stroke-miterlimit="10" stroke-width="1"/>
      <path id="Path_24851-49" data-name="Path 24851" d="M147.913,477.983a6.534,6.534,0,1,1-6.563-6.509A6.564,6.564,0,0,1,147.913,477.983Z" transform="translate(-108.998 -450.792)" fill="none" stroke="#1a1a1a" stroke-miterlimit="10" stroke-width="1"/>
    </g>
    <g transform="translate(-25.347 448.819)">
      <path id="Path_24850-50" data-name="Path 24850" d="M202.276,532.388a6.519,6.519,0,1,1-13.037-.133,6.519,6.519,0,0,1,13.037.133Z" transform="translate(-130.658 -472.457)" fill="none" stroke="#1a1a1a" stroke-miterlimit="10" stroke-width="1"/>
      <path id="Path_24851-50" data-name="Path 24851" d="M147.913,477.983a6.534,6.534,0,1,1-6.563-6.509A6.564,6.564,0,0,1,147.913,477.983Z" transform="translate(-108.998 -450.792)" fill="none" stroke="#1a1a1a" stroke-miterlimit="10" stroke-width="1"/>
    </g>
    <g transform="translate(41.653 448.819)">
      <path id="Path_24850-51" data-name="Path 24850" d="M202.276,532.388a6.519,6.519,0,1,1-13.037-.133,6.519,6.519,0,0,1,13.037.133Z" transform="translate(-130.658 -472.457)" fill="none" stroke="#1a1a1a" stroke-miterlimit="10" stroke-width="1"/>
      <path id="Path_24851-51" data-name="Path 24851" d="M147.913,477.983a6.534,6.534,0,1,1-6.563-6.509A6.564,6.564,0,0,1,147.913,477.983Z" transform="translate(-108.998 -450.792)" fill="none" stroke="#1a1a1a" stroke-miterlimit="10" stroke-width="1"/>
    </g>
    <g transform="translate(108.653 448.819)">
      <path id="Path_24850-52" data-name="Path 24850" d="M202.276,532.388a6.519,6.519,0,1,1-13.037-.133,6.519,6.519,0,0,1,13.037.133Z" transform="translate(-130.658 -472.457)" fill="none" stroke="#1a1a1a" stroke-miterlimit="10" stroke-width="1"/>
      <path id="Path_24851-52" data-name="Path 24851" d="M147.913,477.983a6.534,6.534,0,1,1-6.563-6.509A6.564,6.564,0,0,1,147.913,477.983Z" transform="translate(-108.998 -450.792)" fill="none" stroke="#1a1a1a" stroke-miterlimit="10" stroke-width="1"/>
    </g>
    <g transform="translate(175.653 448.819)">
      <path id="Path_24850-53" data-name="Path 24850" d="M202.276,532.388a6.519,6.519,0,1,1-13.037-.133,6.519,6.519,0,0,1,13.037.133Z" transform="translate(-130.658 -472.457)" fill="none" stroke="#1a1a1a" stroke-miterlimit="10" stroke-width="1"/>
      <path id="Path_24851-53" data-name="Path 24851" d="M147.913,477.983a6.534,6.534,0,1,1-6.563-6.509A6.564,6.564,0,0,1,147.913,477.983Z" transform="translate(-108.998 -450.792)" fill="none" stroke="#1a1a1a" stroke-miterlimit="10" stroke-width="1"/>
    </g>
    <g transform="translate(242.653 448.819)">
      <path id="Path_24850-54" data-name="Path 24850" d="M202.276,532.388a6.519,6.519,0,1,1-13.037-.133,6.519,6.519,0,0,1,13.037.133Z" transform="translate(-130.658 -472.457)" fill="none" stroke="#1a1a1a" stroke-miterlimit="10" stroke-width="1"/>
      <path id="Path_24851-54" data-name="Path 24851" d="M147.913,477.983a6.534,6.534,0,1,1-6.563-6.509A6.564,6.564,0,0,1,147.913,477.983Z" transform="translate(-108.998 -450.792)" fill="none" stroke="#1a1a1a" stroke-miterlimit="10" stroke-width="1"/>
    </g>
    <g transform="translate(309.653 448.819)">
      <path id="Path_24850-55" data-name="Path 24850" d="M202.276,532.388a6.519,6.519,0,1,1-13.037-.133,6.519,6.519,0,0,1,13.037.133Z" transform="translate(-130.658 -472.457)" fill="none" stroke="#1a1a1a" stroke-miterlimit="10" stroke-width="1"/>
      <path id="Path_24851-55" data-name="Path 24851" d="M147.913,477.983a6.534,6.534,0,1,1-6.563-6.509A6.564,6.564,0,0,1,147.913,477.983Z" transform="translate(-108.998 -450.792)" fill="none" stroke="#1a1a1a" stroke-miterlimit="10" stroke-width="1"/>
    </g>
    <g transform="translate(376.653 448.819)">
      <path id="Path_24850-56" data-name="Path 24850" d="M202.276,532.388a6.519,6.519,0,1,1-13.037-.133,6.519,6.519,0,0,1,13.037.133Z" transform="translate(-130.658 -472.457)" fill="none" stroke="#1a1a1a" stroke-miterlimit="10" stroke-width="1"/>
      <path id="Path_24851-56" data-name="Path 24851" d="M147.913,477.983a6.534,6.534,0,1,1-6.563-6.509A6.564,6.564,0,0,1,147.913,477.983Z" transform="translate(-108.998 -450.792)" fill="none" stroke="#1a1a1a" stroke-miterlimit="10" stroke-width="1"/>
    </g>
  </g>
</svg>
